<svg id="visual" viewBox="0 0 900 600" width="900" height="600" xmlns="http://www.w3.org/2000/svg" xmlns:xlink="http://www.w3.org/1999/xlink" version="1.1"><rect x="0" y="0" width="900" height="600" fill="#1e2d4a"></rect><g transform="translate(453.36933512206843 307.034324653547)"><path d="M105.5 -181.6C148.5 -157.9 203.3 -153.5 228.7 -126.4C254.1 -99.3 250 -49.7 250.3 0.2C250.6 50 255.2 100 231.6 130.2C208 160.3 156.3 170.7 113 189.7C69.7 208.7 34.8 236.3 -6.1 246.9C-47 257.4 -94 250.8 -124.2 224.2C-154.3 197.6 -167.7 151.1 -192 110.4C-216.3 69.7 -251.7 34.8 -256.9 -3C-262.1 -40.8 -237.1 -81.7 -212.5 -121.8C-187.8 -161.9 -163.4 -201.3 -128 -229.4C-92.7 -257.5 -46.3 -274.3 -7.5 -261.2C31.3 -248.1 62.5 -205.3 105.5 -181.6" fill="#162137"></path></g></svg>