<svg id="visual" viewBox="0 0 900 600" width="900" height="600" xmlns="http://www.w3.org/2000/svg" xmlns:xlink="http://www.w3.org/1999/xlink" version="1.1"><path d="M0 55L82 43L164 79L245 97L327 85L409 79L491 67L573 67L655 67L736 61L818 43L900 43L900 0L818 0L736 0L655 0L573 0L491 0L409 0L327 0L245 0L164 0L82 0L0 0Z" fill="#101726"></path><path d="M0 229L82 199L164 181L245 247L327 325L409 235L491 205L573 163L655 235L736 289L818 259L900 169L900 41L818 41L736 59L655 65L573 65L491 65L409 77L327 83L245 95L164 77L82 41L0 53Z" fill="#131c2f"></path><path d="M0 331L82 295L164 235L245 295L327 409L409 307L491 325L573 283L655 349L736 331L818 379L900 247L900 167L818 257L736 287L655 233L573 161L491 203L409 233L327 323L245 245L164 179L82 197L0 227Z" fill="#172238"></path><path d="M0 451L82 457L164 535L245 541L327 529L409 463L491 529L573 553L655 499L736 469L818 535L900 439L900 245L818 377L736 329L655 347L573 281L491 323L409 305L327 407L245 293L164 233L82 293L0 329Z" fill="#1b2741"></path><path d="M0 601L82 601L164 601L245 601L327 601L409 601L491 601L573 601L655 601L736 601L818 601L900 601L900 437L818 533L736 467L655 497L573 551L491 527L409 461L327 527L245 539L164 533L82 455L0 449Z" fill="#1f2d4a"></path></svg>