<svg id="visual" viewBox="0 0 900 600" width="900" height="600" xmlns="http://www.w3.org/2000/svg" xmlns:xlink="http://www.w3.org/1999/xlink" version="1.1"><rect width="900" height="600" fill="#1e2d4a"></rect><g><g transform="translate(842 397)"><path d="M72.2 -84.5C92.8 -68.7 108.3 -45.3 107.7 -22.8C107.1 -0.3 90.5 21.2 78.5 48.4C66.5 75.7 59 108.7 37.4 127.2C15.8 145.7 -20.1 149.6 -38.4 131.6C-56.8 113.6 -57.7 73.8 -60.9 46C-64.1 18.2 -69.4 2.5 -74.5 -20.8C-79.5 -44.1 -84.1 -74.9 -71.7 -92.2C-59.2 -109.4 -29.6 -113 -1.9 -110.7C25.8 -108.5 51.6 -100.3 72.2 -84.5Z" fill="#162137"></path></g><g transform="translate(428 182)"><path d="M31 -29.5C45 -25.3 64.5 -20 73.7 -7.1C83 5.8 82.1 26.3 75.6 49.4C69.2 72.5 57.1 98 41.3 96.2C25.6 94.4 6.2 65.2 -14.3 52.2C-34.7 39.1 -56.3 42 -65.4 34C-74.4 26 -70.9 7.1 -70.9 -15.9C-70.9 -38.9 -74.4 -65.9 -63.2 -70.7C-52 -75.4 -26 -57.9 -8.7 -47.5C8.5 -37.1 17.1 -33.8 31 -29.5Z" fill="#162137"></path></g><g transform="translate(132 8)"><path d="M66.3 -66C87 -61.7 105.6 -41.8 111.3 -18.3C117 5.2 109.9 32.3 96.2 55C82.4 77.7 62.1 96.2 41.7 95.1C21.3 94.1 1 73.7 -24.8 65.5C-50.6 57.3 -81.8 61.3 -98.8 48.8C-115.8 36.4 -118.6 7.5 -104 -8.5C-89.5 -24.4 -57.5 -27.4 -37.2 -31.8C-17 -36.1 -8.5 -41.9 7.2 -50.5C22.8 -59 45.7 -70.3 66.3 -66Z" fill="#162137"></path></g><g transform="translate(23 368)"><path d="M42.6 -52.6C55 -40.4 64.7 -26.8 72.6 -8.9C80.5 9.1 86.5 31.3 80.8 51.8C75.1 72.3 57.5 91.1 36.4 98.1C15.2 105 -9.7 100 -23.6 85.9C-37.5 71.7 -40.5 48.4 -46.4 30.5C-52.2 12.6 -61.1 0.1 -65.1 -17.5C-69.2 -35.2 -68.5 -58 -56.9 -70.3C-45.2 -82.6 -22.6 -84.4 -3.7 -79.9C15.1 -75.5 30.2 -64.8 42.6 -52.6Z" fill="#162137"></path></g><g transform="translate(478 557)"><path d="M42.3 -45C55.4 -39.4 67 -26.6 64 -15.4C61.1 -4.2 43.7 5.5 32.3 12.6C21 19.7 15.8 24.3 10.1 25.5C4.4 26.6 -1.8 24.2 -13 24.8C-24.2 25.5 -40.6 29.2 -45.4 24.4C-50.3 19.7 -43.6 6.6 -41.5 -7.7C-39.5 -22 -41.9 -37.4 -35.7 -44.2C-29.5 -51 -14.8 -49.3 -0.1 -49.1C14.6 -49 29.2 -50.6 42.3 -45Z" fill="#162137"></path></g><g transform="translate(776 21)"><path d="M52.3 -60.4C66.9 -50.1 77.2 -32.8 76.6 -16.4C76 -0.1 64.4 15.2 54.8 31.3C45.1 47.3 37.3 64.1 24.8 69C12.4 73.8 -4.6 66.7 -29.9 65C-55.2 63.3 -88.8 67 -97.5 54.8C-106.3 42.7 -90.2 14.8 -80.6 -9.9C-71.1 -34.6 -68.1 -56.1 -55.8 -66.8C-43.4 -77.5 -21.7 -77.5 -1.4 -75.8C18.9 -74.1 37.7 -70.8 52.3 -60.4Z" fill="#162137"></path></g></g></svg>